PathFileType	4	(X/Y/Z)	/Users/niels/Desktop/University/Third Semester/Perception and Action/Exam/Gymnastics Motion Tracking/Code for Gym Tracking/Analyzed Data/Webcam_Backflip/id8_2_trajectory_Sports2D/id8_2_trajectory_Sports2D_px_person00.trc
DataRate	CameraRate	NumFrames	NumMarkers	Units	OrigDataRate	OrigDataStartFrame	OrigNumFrames
29.714285714285715	29.714285714285715	11	22	m	29.714285714285715	78	105
Frame#	Time	Hip			RHip			RKnee			RAnkle			RBigToe			RSmallToe			RHeel			LHip			LKnee			LAnkle			LBigToe			LSmallToe			LHeel			Neck			Head			Nose			RShoulder			RElbow			RWrist			LShoulder			LElbow			LWrist		
		X1	Y1	Z1	X2	Y2	Z2	X3	Y3	Z3	X4	Y4	Z4	X5	Y5	Z5	X6	Y6	Z6	X7	Y7	Z7	X8	Y8	Z8	X9	Y9	Z9	X10	Y10	Z10	X11	Y11	Z11	X12	Y12	Z12	X13	Y13	Z13	X14	Y14	Z14	X15	Y15	Z15	X16	Y16	Z16	X17	Y17	Z17	X18	Y18	Z18	X19	Y19	Z19	X20	Y20	Z20	X21	Y21	Z21	X22	Y22	Z22
78	2.625	1.0083749237898767	-0.5327304037435155	0.0	0.95851828603341	-0.5428324602423568	0.0	1.012458941016538	-0.7381549817254083	0.0	0.9861630271025988	-0.9640566165010347	0.0	1.0587719940601747	-1.007909077553883	0.0	1.0283271959743396	-1.0173881738854653	0.0	0.9658961731274865	-0.9898464121349618	0.0	1.0563376232455801	-0.5383158074946619	0.0	1.0221619663162917	-0.7379534911966795	0.0	0.9558059956747336	-0.9337761450253297	0.0	1.0361459969099103	-0.98400167066138	0.0	1.0430038225122225	-0.9720884180402198	0.0	0.93127404924724	-0.9548836449363017	0.0	0.9971947688810755	-0.23003741807342915	0.0	0.9911412402196004	-0.09976616751341516	0.0	1.0105946607722534	-0.15760565698197884	0.0	0.900096119718379	-0.2841013060398943	0.0	0.7710344166078757	-0.3079861395870065	0.0	0.652950525634355	-0.2373848543195334	0.0	1.0929015860520677	-0.27066759186373995	0.0	1.1473603782895037	-0.37727832628264674	0.0	1.0230349731079438	-0.3367126490167046	0.0
79	2.658653846153846	1.0080693185554417	-0.5313973456990875	0.0	0.9583006794515886	-0.5414327690079319	0.0	1.0109901844948557	-0.7377882795931516	0.0	0.9863119715295506	-0.9650691757239566	0.0	1.0596298492163605	-1.0083736878102132	0.0	1.0292266073336689	-1.0180466882643584	0.0	0.965894267612875	-0.9908339287873458	0.0	1.0558898563679842	-0.5368105030953981	0.0	1.020363371207855	-0.7373951490457306	0.0	0.9561777203163068	-0.9360284852327325	0.0	1.034986080730396	-0.9847821099826732	0.0	1.0426437082060713	-0.9732152024864181	0.0	0.9320370763026801	-0.9568224026912511	0.0	0.9982979331271581	-0.22823452728585478	0.0	0.9924579256662006	-0.09775388085438237	0.0	1.0125348117556	-0.155348017966977	0.0	0.9010118260376533	-0.28185826148368687	0.0	0.770882487913305	-0.3049585231374547	0.0	0.6542513364528082	-0.23202845984187231	0.0	1.0942628541081394	-0.26880547619190925	0.0	1.1494045711110321	-0.3753145130933738	0.0	1.0244085025604377	-0.3348050793248103	0.0
80	2.692307692307692	1.0079835661893428	-0.5302971886992957	0.0	0.9582525017066795	-0.5400170659897446	0.0	1.0092687945723104	-0.7380093939579876	0.0	0.9865474561201022	-0.9662781009300583	0.0	1.0607179449613762	-1.0084938222056694	0.0	1.0304530699962384	-1.0183403825998123	0.0	0.966422920435239	-0.9921155292642022	0.0	1.0554896261032054	-0.5355697427288533	0.0	1.018667617293153	-0.7375727727231746	0.0	0.9572984246988989	-0.938784639451381	0.0	1.0356918647238003	-0.9854387197776615	0.0	1.042859076029831	-0.9742001097413993	0.0	0.9334573022506181	-0.9590491828051758	0.0	0.9995061807793609	-0.22639147840810167	0.0	0.9935775495133775	-0.09558352483996051	0.0	1.0145053113883769	-0.15272056599246128	0.0	0.9019329328130129	-0.27938725307305046	0.0	0.7706587380936809	-0.301887368247884	0.0	0.6546822720575681	-0.22786501323060557	0.0	1.0960293085238597	-0.26660010009830276	0.0	1.1519372931976575	-0.3734810426648244	0.0	1.0259356138933768	-0.33292839118021483	0.0
81	2.7259615384615383	1.0080976727199134	-0.5294221267192039	0.0	0.9583090131746445	-0.5386124984114793	0.0	1.0074843348869857	-0.7387752492540585	0.0	0.9867425200720094	-0.9676674388180738	0.0	1.0620378556887944	-1.0083927734338975	0.0	1.032049024272244	-1.0184462888300307	0.0	0.967306713649491	-0.9936236936426985	0.0	1.0552576228385702	-0.5346463805287006	0.0	1.0171815124045276	-0.7384817231814671	0.0	0.9591596473368952	-0.9419786265747342	0.0	1.0374028259196528	-0.9864370261577132	0.0	1.043427053829365	-0.9753829957007084	0.0	0.9353860038052676	-0.9615689490785926	0.0	1.0010452293644223	-0.22462805256623178	0.0	0.9945529933047799	-0.09343235537930374	0.0	1.0166075436567636	-0.15005708359913994	0.0	0.9031940657584645	-0.2768549815867887	0.0	0.7706610641080978	-0.299400432035358	0.0	0.6541684115505638	-0.22631766928597624	0.0	1.098255381622363	-0.26437097984331054	0.0	1.1547165587568062	-0.3721512379900417	0.0	1.0275633152453993	-0.3312281125595604	0.0
82	2.7596153846153846	1.0082657815437115	-0.5288894885579528	0.0	0.9583087407632498	-0.537380129427796	0.0	1.0058369412853936	-0.7400167243391579	0.0	0.9869233318055822	-0.9691703224424361	0.0	1.0634531904729583	-1.00820375620353	0.0	1.033903576101562	-1.0184594431596452	0.0	0.9684296371666066	-0.995225017270009	0.0	1.0551367117853068	-0.5341895553947966	0.0	1.016130966782113	-0.7400376603021176	0.0	0.9614557350197488	-0.9451775731512365	0.0	1.0388676734800164	-0.9879194389063886	0.0	1.0438589824186266	-0.9768159998256493	0.0	0.9373701385226544	-0.9640666934746575	0.0	1.0031351912951796	-0.22318713756802216	0.0	0.9955530447492139	-0.09166258550032082	0.0	1.0188960661131026	-0.14791759655939665	0.0	0.9052282055006533	-0.2745920375899769	0.0	0.7713779711928433	-0.2984123257064971	0.0	0.6528985591812245	-0.2295279505264289	0.0	1.101060089108316	-0.2626090901883724	0.0	1.1573832752800097	-0.37192469444885073	0.0	1.029280587424875	-0.33038111495670064	0.0
83	2.793269230769231	1.008308305682266	-0.5289889531245219	0.0	0.9581481466236985	-0.536673169670098	0.0	1.004678930101748	-0.741782962561275	0.0	0.9871745838533057	-0.970632061364128	0.0	1.0646895779855052	-1.0080804238980818	0.0	1.0357659030484474	-1.0184342664328878	0.0	0.9696317718367793	-0.9966859107442779	0.0	1.0549563479273516	-0.5345011594539891	0.0	1.0159829525122672	-0.7421398549810481	0.0	0.9636319463481177	-0.9475816581728369	0.0	1.039252599977247	-0.9895347329712775	0.0	1.0436938723390814	-0.9781456579973822	0.0	0.938798408817384	-0.9658871884319983	0.0	1.00593635624522	-0.22247609507614854	0.0	0.9968223522242047	-0.09077343183035595	0.0	1.0213915682595185	-0.14695358744628428	0.0	0.9084185394944145	-0.27304193193271464	0.0	0.7734958849384246	-0.3001161922562737	0.0	0.6515410792743149	-0.24022519256776945	0.0	1.1045547235133644	-0.26193532491421423	0.0	1.1594286129559437	-0.3735191231337771	0.0	1.0311148374868218	-0.3317198209052184	0.0
84	2.8269230769230766	1.0081350920024048	-0.530138002189527	0.0	0.9579140578671579	-0.5370273439358099	0.0	1.0045407447117587	-0.744246258756977	0.0	0.9875034206157893	-0.9718205599582457	0.0	1.065460336695173	-1.0082331983176576	0.0	1.0373400273812332	-1.0184821584894947	0.0	0.9706230908910826	-0.9976796009748904	0.0	1.0545902814979533	-0.5359782404345669	0.0	1.0173588715145416	-0.7447195957668074	0.0	0.9651083283229183	-0.9482982282813133	0.0	1.03852778217207	-0.9907884590654111	0.0	1.0427227085584798	-0.9788835111723329	0.0	0.9391784049628227	-0.9661687521837813	0.0	1.009501389644644	-0.22303271157469953	0.0	0.9986169608438219	-0.09129595704748263	0.0	1.02412823171974	-0.1477845178398568	0.0	0.9129575859120891	-0.27271196491453403	0.0	0.7777569842422046	-0.3058786313133598	0.0	0.651565002322092	-0.26112675896277077	0.0	1.108670818463003	-0.26300112107084833	0.0	1.1602301779616344	-0.37753474160283373	0.0	1.0333114129264194	-0.33721301631045303	0.0
85	2.860576923076923	1.0078434993169951	-0.5328049798004427	0.0	0.9579139152791135	-0.539015855963106	0.0	1.0059571603809587	-0.7475610412244771	0.0	0.9878915965575451	-0.9725274032882819	0.0	1.0656592662975815	-1.0089011411152489	0.0	1.038452555322683	-1.018763683590387	0.0	0.971121975373988	-0.9978968018435378	0.0	1.054099084853527	-0.5390006665508154	0.0	1.0207035674235974	-0.7477613286264525	0.0	0.9654709508790855	-0.9467046635250573	0.0	1.0371567755393856	-0.9914258936192935	0.0	1.0409341253460593	-0.9786955085840918	0.0	0.9383365504757222	-0.9641359764229694	0.0	1.0136882499549686	-0.22533903030569324	0.0	1.0011119990677408	-0.09360490595154859	0.0	1.027151295937987	-0.15084619991533016	0.0	0.918761055976665	-0.2741687008967241	0.0	0.7848080933391202	-0.3170152789138231	0.0	0.6555185045793677	-0.2940058559749016	0.0	1.11302283266714	-0.26628738693841103	0.0	1.1591926292790493	-0.3842625359692773	0.0	1.036687125383169	-0.3490823204726491	0.0
86	2.894230769230769	1.0077086375285216	-0.537342363679983	0.0	0.9585897554389357	-0.5429822224974513	0.0	1.0093245413905563	-0.7516457793281776	0.0	0.988470416190083	-0.972615951300443	0.0	1.0654394454607012	-1.0102166411163032	0.0	1.0391188332352028	-1.0193751995486544	0.0	0.9711140605652454	-0.9971283662836059	0.0	1.0537419978867417	-0.5437402745473565	0.0	1.0259932297028402	-0.7512227843553836	0.0	0.9645158540273662	-0.9427676339974665	0.0	1.0354562752384326	-0.991466781964691	0.0	1.0383006218983681	-0.9775378638682286	0.0	0.9364161605967024	-0.9595315170072882	0.0	1.0181081027313748	-0.22957803483175113	0.0	1.0043241434139238	-0.09770753796971399	0.0	1.0303914617744117	-0.15615638393718054	0.0	0.9254424817624571	-0.2779843924753204	0.0	0.7953162016787999	-0.33446333365505504	0.0	0.6671120611694386	-0.33893889139721967	0.0	1.1168608642215343	-0.2718716712657052	0.0	1.1559461050575128	-0.39356321425627133	0.0	1.0427848416717787	-0.3690613384343764	0.0
87	2.9278846153846154	1.0079887693135097	-0.5437334798682393	0.0	0.9603149979904914	-0.5488389517381175	0.0	1.0149541719106694	-0.7561022229339516	0.0	0.9895620923614219	-0.971989780039233	0.0	1.065096230191296	-1.0120623951479013	0.0	1.0394637540202836	-1.0202326541914402	0.0	0.9709172827657597	-0.9952826945031387	0.0	1.0537401241370719	-0.5499620676917212	0.0	1.0326892219035329	-0.7549156327093287	0.0	0.9622244147042388	-0.9372311642680561	0.0	1.0333093653255374	-0.9910546860362462	0.0	1.0347328224590382	-0.9757368874643579	0.0	0.9337173001065341	-0.9529831934402524	0.0	1.0221200220588738	-0.23553867258523106	0.0	1.008078314219635	-0.10322297492974351	0.0	1.033501889053513	-0.1632826898112876	0.0	0.9323256877854531	-0.28453458130794385	0.0	0.8103381167558911	-0.3583385498313266	0.0	0.6910337907503418	-0.39377759184301914	0.0	1.119094318151395	-0.2792980223303744	0.0	1.1504758303628253	-0.40473601451887703	0.0	1.053377586155361	-0.39749890156084083	0.0
88	2.9615384615384612	1.0086426843788174	-0.5514328438132051	0.0	0.9631483314849668	-0.5560249434735254	0.0	1.0231347778047364	-0.7602723741088628	0.0	0.9915749609833315	-0.9705596156320242	0.0	1.0649071471265161	-1.0141139196568205	0.0	1.0396756003862921	-1.0210940394430126	0.0	0.9710965063331792	-0.99239288806565	0.0	1.0539124577550205	-0.556994550341833	0.0	1.0398515906854775	-0.7584555125470294	0.0	0.9587367253021671	-0.9313427230185334	0.0	1.0303251385350325	-0.9903195602915914	0.0	1.0301671208955816	-0.9738713398623652	0.0	0.9304602128193966	-0.945882132172864	0.0	1.024882872981652	-0.24276311392771197	0.0	1.0119957345656607	-0.10961650772406725	0.0	1.0359062503296903	-0.17167552058599939	0.0	0.9385736602374997	-0.29370259687027017	0.0	0.8315399335907097	-0.3872930294272868	0.0	0.7322541052110649	-0.4535102808841729	0.0	1.1185200086159055	-0.28767740886669496	0.0	1.143139755962265	-0.4165337320687269	0.0	1.069209029466291	-0.43258022659423045	0.0
